<?xml version="1.0" encoding="UTF-8" standalone="no"?>
<!DOCTYPE svg PUBLIC "-//W3C//DTD SVG 1.1//EN"
 "http://www.w3.org/Graphics/SVG/1.1/DTD/svg11.dtd">
<!-- Generated by graphviz version 9.0.0 (0)
 -->
<!-- Pages: 1 -->
<svg width="117pt" height="265pt"
 viewBox="0.00 0.00 117.00 264.50" xmlns="http://www.w3.org/2000/svg" xmlns:xlink="http://www.w3.org/1999/xlink">
<g id="graph0" class="graph" transform="scale(1 1) rotate(0) translate(4 260.5)">
<polygon fill="white" stroke="none" points="-4,4 -4,-260.5 113,-260.5 113,4 -4,4"/>
<g id="clust1" class="cluster">
<title>cluster_subunits</title>
<polygon fill="none" stroke="black" stroke-dasharray="5,2" points="20,-64 20,-212.5 90,-212.5 90,-64 20,-64"/>
<text text-anchor="middle" x="55" y="-195.2" font-family="Times,serif" font-size="14.00">m</text>
</g>
<!-- A -->
<g id="node1" class="node">
<title>A</title>
<ellipse fill="lightgrey" stroke="lightgrey" cx="55" cy="-162" rx="27" ry="18"/>
<text text-anchor="middle" x="55" y="-156.95" font-family="Times,serif" font-size="14.00">A</text>
</g>
<!-- W -->
<g id="node2" class="node">
<title>W</title>
<ellipse fill="lightgrey" stroke="lightgrey" cx="55" cy="-90" rx="27" ry="18"/>
<text text-anchor="middle" x="55" y="-84.95" font-family="Times,serif" font-size="14.00">W</text>
</g>
<!-- A&#45;&gt;W -->
<g id="edge1" class="edge">
<title>A&#45;&gt;W</title>
<path fill="none" stroke="black" d="M55,-143.7C55,-136.41 55,-127.73 55,-119.54"/>
<polygon fill="black" stroke="black" points="58.5,-119.61 55,-109.61 51.5,-119.61 58.5,-119.61"/>
</g>
<!-- Y -->
<g id="node3" class="node">
<title>Y</title>
<ellipse fill="lightgrey" stroke="lightgrey" cx="82" cy="-18" rx="27" ry="18"/>
<text text-anchor="middle" x="82" y="-12.95" font-family="Times,serif" font-size="14.00">Y</text>
</g>
<!-- A&#45;&gt;Y -->
<g id="edge2" class="edge">
<title>A&#45;&gt;Y</title>
<path fill="none" stroke="black" d="M68.75,-146.07C76.96,-136.1 86.62,-122.25 91,-108 97.11,-88.12 94.37,-64.69 90.36,-46.86"/>
<polygon fill="black" stroke="black" points="93.78,-46.09 87.92,-37.26 86.99,-47.81 93.78,-46.09"/>
</g>
<!-- W&#45;&gt;Y -->
<g id="edge3" class="edge">
<title>W&#45;&gt;Y</title>
<path fill="none" stroke="black" d="M61.54,-72.06C64.52,-64.32 68.13,-54.96 71.48,-46.27"/>
<polygon fill="black" stroke="black" points="74.65,-47.79 74.98,-37.2 68.12,-45.27 74.65,-47.79"/>
</g>
<!-- U -->
<g id="node4" class="node">
<title>U</title>
<ellipse fill="none" stroke="black" cx="27" cy="-238.5" rx="27" ry="18"/>
<text text-anchor="middle" x="27" y="-233.45" font-family="Times,serif" font-size="14.00">U</text>
</g>
<!-- U&#45;&gt;A -->
<g id="edge4" class="edge">
<title>U&#45;&gt;A</title>
<path fill="none" stroke="black" d="M33.35,-220.59C36.68,-211.74 40.84,-200.66 44.63,-190.6"/>
<polygon fill="black" stroke="black" points="47.9,-191.85 48.14,-181.26 41.34,-189.39 47.9,-191.85"/>
</g>
<!-- U&#45;&gt;W -->
<g id="edge5" class="edge">
<title>U&#45;&gt;W</title>
<path fill="none" stroke="black" d="M20.85,-220.73C20.09,-218.01 19.42,-215.2 19,-212.5 14.3,-182.42 10.05,-173.1 19,-144 22.18,-133.65 28.15,-123.51 34.33,-114.91"/>
<polygon fill="black" stroke="black" points="36.99,-117.19 40.33,-107.13 31.45,-112.91 36.99,-117.19"/>
</g>
</g>
</svg>
