<?xml version="1.0" encoding="UTF-8" standalone="no"?>
<!DOCTYPE svg PUBLIC "-//W3C//DTD SVG 1.1//EN"
 "http://www.w3.org/Graphics/SVG/1.1/DTD/svg11.dtd">
<!-- Generated by graphviz version 9.0.0 (0)
 -->
<!-- Pages: 1 -->
<svg width="125pt" height="273pt"
 viewBox="0.00 0.00 125.00 272.50" xmlns="http://www.w3.org/2000/svg" xmlns:xlink="http://www.w3.org/1999/xlink">
<g id="graph0" class="graph" transform="scale(1 1) rotate(0) translate(4 268.5)">
<polygon fill="white" stroke="none" points="-4,4 -4,-268.5 121,-268.5 121,4 -4,4"/>
<g id="clust1" class="cluster">
<title>cluster_subunits</title>
<polygon fill="none" stroke="black" stroke-dasharray="5,2" points="0,0 0,-220.5 90,-220.5 90,0 0,0"/>
<text text-anchor="middle" x="45" y="-203.2" font-family="Times,serif" font-size="14.00">m</text>
</g>
<!-- A -->
<g id="node1" class="node">
<title>A</title>
<ellipse fill="lightgrey" stroke="lightgrey" cx="35" cy="-170" rx="27" ry="18"/>
<text text-anchor="middle" x="35" y="-164.95" font-family="Times,serif" font-size="14.00">A</text>
</g>
<!-- Y -->
<g id="node2" class="node">
<title>Y</title>
<ellipse fill="lightgrey" stroke="lightgrey" cx="55" cy="-26" rx="27" ry="18"/>
<text text-anchor="middle" x="55" y="-20.95" font-family="Times,serif" font-size="14.00">Y</text>
</g>
<!-- A&#45;&gt;Y -->
<g id="edge1" class="edge">
<title>A&#45;&gt;Y</title>
<path fill="none" stroke="black" d="M27.35,-152.31C20.13,-134.21 11.43,-104.61 19,-80 22.18,-69.65 28.15,-59.5 34.33,-50.91"/>
<polygon fill="black" stroke="black" points="36.99,-53.19 40.33,-43.13 31.45,-48.91 36.99,-53.19"/>
</g>
<!-- Z -->
<g id="node3" class="node">
<title>Z</title>
<ellipse fill="lightgrey" stroke="lightgrey" cx="55" cy="-98" rx="27" ry="18"/>
<text text-anchor="middle" x="55" y="-92.95" font-family="Times,serif" font-size="14.00">Z</text>
</g>
<!-- A&#45;&gt;Z -->
<g id="edge2" class="edge">
<title>A&#45;&gt;Z</title>
<path fill="none" stroke="black" d="M39.84,-152.05C42,-144.49 44.61,-135.37 47.04,-126.85"/>
<polygon fill="black" stroke="black" points="50.41,-127.82 49.79,-117.25 43.68,-125.9 50.41,-127.82"/>
</g>
<!-- Z&#45;&gt;Y -->
<g id="edge3" class="edge">
<title>Z&#45;&gt;Y</title>
<path fill="none" stroke="black" d="M55,-79.7C55,-72.41 55,-63.73 55,-55.54"/>
<polygon fill="black" stroke="black" points="58.5,-55.62 55,-45.62 51.5,-55.62 58.5,-55.62"/>
</g>
<!-- U -->
<g id="node4" class="node">
<title>U</title>
<ellipse fill="none" stroke="black" cx="90" cy="-246.5" rx="27" ry="18"/>
<text text-anchor="middle" x="90" y="-241.45" font-family="Times,serif" font-size="14.00">U</text>
</g>
<!-- U&#45;&gt;A -->
<g id="edge4" class="edge">
<title>U&#45;&gt;A</title>
<path fill="none" stroke="black" d="M78.6,-230.06C71.28,-220.14 61.6,-207.03 53.22,-195.68"/>
<polygon fill="black" stroke="black" points="56.22,-193.85 47.47,-187.89 50.59,-198.01 56.22,-193.85"/>
</g>
<!-- U&#45;&gt;Y -->
<g id="edge5" class="edge">
<title>U&#45;&gt;Y</title>
<path fill="none" stroke="black" d="M93.44,-228.55C98.91,-198.01 107.41,-132.07 91,-80 87.75,-69.67 81.76,-59.53 75.59,-50.93"/>
<polygon fill="black" stroke="black" points="78.48,-48.95 69.61,-43.15 72.93,-53.21 78.48,-48.95"/>
</g>
<!-- U&#45;&gt;Z -->
<g id="edge6" class="edge">
<title>U&#45;&gt;Z</title>
<path fill="none" stroke="black" d="M86.97,-228.16C83.57,-209.31 77.64,-178.34 71,-152 68.92,-143.76 66.38,-134.9 63.93,-126.82"/>
<polygon fill="black" stroke="black" points="67.35,-126.03 61.04,-117.52 60.66,-128.1 67.35,-126.03"/>
</g>
</g>
</svg>
