<?xml version="1.0" encoding="UTF-8" standalone="no"?>
<!DOCTYPE svg PUBLIC "-//W3C//DTD SVG 1.1//EN"
 "http://www.w3.org/Graphics/SVG/1.1/DTD/svg11.dtd">
<!-- Generated by graphviz version 9.0.0 (0)
 -->
<!-- Pages: 1 -->
<svg width="227pt" height="265pt"
 viewBox="0.00 0.00 227.00 264.50" xmlns="http://www.w3.org/2000/svg" xmlns:xlink="http://www.w3.org/1999/xlink">
<g id="graph0" class="graph" transform="scale(1 1) rotate(0) translate(4 260.5)">
<polygon fill="white" stroke="none" points="-4,4 -4,-260.5 223,-260.5 223,4 -4,4"/>
<g id="clust1" class="cluster">
<title>cluster_subunits</title>
<polygon fill="none" stroke="black" stroke-dasharray="5,2" points="130,-64 130,-212.5 200,-212.5 200,-64 130,-64"/>
<text text-anchor="middle" x="165" y="-195.2" font-family="Times,serif" font-size="14.00">m</text>
</g>
<!-- A -->
<g id="node1" class="node">
<title>A</title>
<ellipse fill="lightgrey" stroke="lightgrey" cx="165" cy="-162" rx="27" ry="18"/>
<text text-anchor="middle" x="165" y="-156.95" font-family="Times,serif" font-size="14.00">A</text>
</g>
<!-- Z -->
<g id="node2" class="node">
<title>Z</title>
<ellipse fill="lightgrey" stroke="lightgrey" cx="165" cy="-90" rx="27" ry="18"/>
<text text-anchor="middle" x="165" y="-84.95" font-family="Times,serif" font-size="14.00">Z</text>
</g>
<!-- A&#45;&gt;Z -->
<g id="edge1" class="edge">
<title>A&#45;&gt;Z</title>
<path fill="none" stroke="black" d="M165,-143.7C165,-136.41 165,-127.73 165,-119.54"/>
<polygon fill="black" stroke="black" points="168.5,-119.61 165,-109.61 161.5,-119.61 168.5,-119.61"/>
</g>
<!-- W -->
<g id="node3" class="node">
<title>W</title>
<ellipse fill="lightgrey" stroke="lightgrey" cx="55" cy="-90" rx="27" ry="18"/>
<text text-anchor="middle" x="55" y="-84.95" font-family="Times,serif" font-size="14.00">W</text>
</g>
<!-- A&#45;&gt;W -->
<g id="edge2" class="edge">
<title>A&#45;&gt;W</title>
<path fill="none" stroke="black" d="M145.84,-148.81C128.65,-137.87 103.18,-121.66 83.58,-109.19"/>
<polygon fill="black" stroke="black" points="85.53,-106.28 75.22,-103.86 81.77,-112.19 85.53,-106.28"/>
</g>
<!-- Y -->
<g id="node4" class="node">
<title>Y</title>
<ellipse fill="lightgrey" stroke="lightgrey" cx="82" cy="-18" rx="27" ry="18"/>
<text text-anchor="middle" x="82" y="-12.95" font-family="Times,serif" font-size="14.00">Y</text>
</g>
<!-- A&#45;&gt;Y -->
<g id="edge3" class="edge">
<title>A&#45;&gt;Y</title>
<path fill="none" stroke="black" d="M153.82,-145.53C146.47,-135.11 136.79,-120.97 129,-108 116.7,-87.54 104.14,-63.56 95.1,-45.66"/>
<polygon fill="black" stroke="black" points="98.24,-44.11 90.64,-36.73 91.98,-47.24 98.24,-44.11"/>
</g>
<!-- Z&#45;&gt;Y -->
<g id="edge4" class="edge">
<title>Z&#45;&gt;Y</title>
<path fill="none" stroke="black" d="M148.6,-75.17C136.78,-65.2 120.6,-51.56 107.15,-40.21"/>
<polygon fill="black" stroke="black" points="109.42,-37.55 99.52,-33.78 104.91,-42.9 109.42,-37.55"/>
</g>
<!-- W&#45;&gt;Z -->
<g id="edge5" class="edge">
<title>W&#45;&gt;Z</title>
<path fill="none" stroke="black" d="M82.07,-90C96.87,-90 111.67,-90 126.47,-90"/>
<polygon fill="black" stroke="black" points="126.28,-93.5 136.28,-90 126.28,-86.5 126.28,-93.5"/>
</g>
<!-- W&#45;&gt;Y -->
<g id="edge6" class="edge">
<title>W&#45;&gt;Y</title>
<path fill="none" stroke="black" d="M61.54,-72.06C64.52,-64.32 68.13,-54.96 71.48,-46.27"/>
<polygon fill="black" stroke="black" points="74.65,-47.79 74.98,-37.2 68.12,-45.27 74.65,-47.79"/>
</g>
<!-- U -->
<g id="node5" class="node">
<title>U</title>
<ellipse fill="none" stroke="black" cx="192" cy="-238.5" rx="27" ry="18"/>
<text text-anchor="middle" x="192" y="-233.45" font-family="Times,serif" font-size="14.00">U</text>
</g>
<!-- U&#45;&gt;A -->
<g id="edge7" class="edge">
<title>U&#45;&gt;A</title>
<path fill="none" stroke="black" d="M185.87,-220.59C182.66,-211.74 178.65,-200.66 175,-190.6"/>
<polygon fill="black" stroke="black" points="178.31,-189.47 171.62,-181.26 171.73,-191.86 178.31,-189.47"/>
</g>
<!-- U&#45;&gt;Z -->
<g id="edge8" class="edge">
<title>U&#45;&gt;Z</title>
<path fill="none" stroke="black" d="M198.91,-220.77C199.78,-218.05 200.52,-215.23 201,-212.5 206.23,-182.51 209.95,-173.1 201,-144 197.82,-133.65 191.85,-123.51 185.67,-114.91"/>
<polygon fill="black" stroke="black" points="188.55,-112.91 179.67,-107.13 183.01,-117.19 188.55,-112.91"/>
</g>
<!-- U2 -->
<g id="node6" class="node">
<title>U2</title>
<ellipse fill="none" stroke="black" cx="27" cy="-162" rx="27" ry="18"/>
<text text-anchor="middle" x="27" y="-156.95" font-family="Times,serif" font-size="14.00">U2</text>
</g>
<!-- U2&#45;&gt;W -->
<g id="edge9" class="edge">
<title>U2&#45;&gt;W</title>
<path fill="none" stroke="black" d="M33.64,-144.41C36.77,-136.57 40.6,-126.99 44.15,-118.13"/>
<polygon fill="black" stroke="black" points="47.38,-119.46 47.85,-108.88 40.89,-116.86 47.38,-119.46"/>
</g>
<!-- U2&#45;&gt;Y -->
<g id="edge10" class="edge">
<title>U2&#45;&gt;Y</title>
<path fill="none" stroke="black" d="M20.45,-144.16C13.7,-123.94 5.86,-89.54 19,-64 25.63,-51.12 37.85,-41.1 49.77,-33.83"/>
<polygon fill="black" stroke="black" points="51.24,-37.02 58.27,-29.09 47.83,-30.9 51.24,-37.02"/>
</g>
</g>
</svg>
