<?xml version="1.0" encoding="UTF-8" standalone="no"?>
<!DOCTYPE svg PUBLIC "-//W3C//DTD SVG 1.1//EN"
 "http://www.w3.org/Graphics/SVG/1.1/DTD/svg11.dtd">
<!-- Generated by graphviz version 9.0.0 (0)
 -->
<!-- Pages: 1 -->
<svg width="207pt" height="273pt"
 viewBox="0.00 0.00 207.11 272.50" xmlns="http://www.w3.org/2000/svg" xmlns:xlink="http://www.w3.org/1999/xlink">
<g id="graph0" class="graph" transform="scale(1 1) rotate(0) translate(4 268.5)">
<polygon fill="white" stroke="none" points="-4,4 -4,-268.5 203.11,-268.5 203.11,4 -4,4"/>
<g id="clust1" class="cluster">
<title>cluster_subunits</title>
<polygon fill="none" stroke="black" stroke-dasharray="5,2" points="0,0 0,-220.5 90,-220.5 90,0 0,0"/>
<text text-anchor="middle" x="45" y="-203.2" font-family="Times,serif" font-size="14.00">m</text>
</g>
<!-- A -->
<g id="node1" class="node">
<title>A</title>
<ellipse fill="lightgrey" stroke="lightgrey" cx="35" cy="-98" rx="27" ry="18"/>
<text text-anchor="middle" x="35" y="-92.95" font-family="Times,serif" font-size="14.00">A</text>
</g>
<!-- Y -->
<g id="node2" class="node">
<title>Y</title>
<ellipse fill="lightgrey" stroke="lightgrey" cx="55" cy="-26" rx="27" ry="18"/>
<text text-anchor="middle" x="55" y="-20.95" font-family="Times,serif" font-size="14.00">Y</text>
</g>
<!-- A&#45;&gt;Y -->
<g id="edge1" class="edge">
<title>A&#45;&gt;Y</title>
<path fill="none" stroke="black" d="M39.84,-80.06C42,-72.49 44.61,-63.37 47.04,-54.85"/>
<polygon fill="black" stroke="black" points="50.41,-55.82 49.79,-45.24 43.67,-53.9 50.41,-55.82"/>
</g>
<!-- Z -->
<g id="node4" class="node">
<title>Z</title>
<ellipse fill="lightgrey" stroke="lightgrey" cx="127" cy="-98" rx="27" ry="18"/>
<text text-anchor="middle" x="127" y="-92.95" font-family="Times,serif" font-size="14.00">Z</text>
</g>
<!-- A&#45;&gt;Z -->
<g id="edge4" class="edge">
<title>A&#45;&gt;Z</title>
<path fill="none" stroke="black" d="M62.31,-98C70.98,-98 79.65,-98 88.31,-98"/>
<polygon fill="black" stroke="black" points="88.2,-101.5 98.2,-98 88.2,-94.5 88.2,-101.5"/>
</g>
<!-- X -->
<g id="node3" class="node">
<title>X</title>
<ellipse fill="lightgrey" stroke="lightgrey" cx="55" cy="-170" rx="27" ry="18"/>
<text text-anchor="middle" x="55" y="-164.95" font-family="Times,serif" font-size="14.00">X</text>
</g>
<!-- X&#45;&gt;A -->
<g id="edge2" class="edge">
<title>X&#45;&gt;A</title>
<path fill="none" stroke="black" d="M50.16,-152.05C48,-144.49 45.39,-135.37 42.96,-126.85"/>
<polygon fill="black" stroke="black" points="46.32,-125.9 40.21,-117.25 39.59,-127.82 46.32,-125.9"/>
</g>
<!-- X&#45;&gt;Y -->
<g id="edge3" class="edge">
<title>X&#45;&gt;Y</title>
<path fill="none" stroke="black" d="M61.49,-152.1C65.08,-141.84 69.17,-128.36 71,-116 73.34,-100.17 73.34,-95.83 71,-80 69.76,-71.6 67.47,-62.68 65,-54.61"/>
<polygon fill="black" stroke="black" points="68.4,-53.74 61.96,-45.33 61.75,-55.93 68.4,-53.74"/>
</g>
<!-- X&#45;&gt;Z -->
<g id="edge5" class="edge">
<title>X&#45;&gt;Z</title>
<path fill="none" stroke="black" d="M69.92,-154.5C79.77,-144.92 92.86,-132.19 104.03,-121.34"/>
<polygon fill="black" stroke="black" points="106.29,-124.03 111.02,-114.55 101.41,-119.01 106.29,-124.03"/>
</g>
<!-- Z&#45;&gt;Y -->
<g id="edge6" class="edge">
<title>Z&#45;&gt;Y</title>
<path fill="none" stroke="black" d="M112.08,-82.5C102.23,-72.92 89.14,-60.19 77.97,-49.34"/>
<polygon fill="black" stroke="black" points="80.59,-47 70.98,-42.54 75.71,-52.02 80.59,-47"/>
</g>
<!-- U -->
<g id="node5" class="node">
<title>U</title>
<ellipse fill="none" stroke="black" cx="55" cy="-246.5" rx="27" ry="18"/>
<text text-anchor="middle" x="55" y="-241.45" font-family="Times,serif" font-size="14.00">U</text>
</g>
<!-- U&#45;&gt;A -->
<g id="edge7" class="edge">
<title>U&#45;&gt;A</title>
<path fill="none" stroke="black" d="M33.22,-235.25C27.57,-231.46 22.17,-226.57 19,-220.5 3.45,-190.78 13.13,-151.58 22.85,-125.85"/>
<polygon fill="black" stroke="black" points="26.01,-127.38 26.52,-116.79 19.52,-124.75 26.01,-127.38"/>
</g>
<!-- U&#45;&gt;Y -->
<g id="edge8" class="edge">
<title>U&#45;&gt;Y</title>
<path fill="none" stroke="black" d="M74.05,-233.16C113.82,-205.81 199.11,-137.94 163,-80 147.48,-55.1 116.47,-41.57 91.65,-34.42"/>
<polygon fill="black" stroke="black" points="92.78,-31.1 82.22,-31.96 91.01,-37.87 92.78,-31.1"/>
</g>
<!-- U&#45;&gt;X -->
<g id="edge9" class="edge">
<title>U&#45;&gt;X</title>
<path fill="none" stroke="black" d="M55,-228.22C55,-219.82 55,-209.49 55,-199.93"/>
<polygon fill="black" stroke="black" points="58.5,-199.95 55,-189.95 51.5,-199.95 58.5,-199.95"/>
</g>
</g>
</svg>
