<?xml version="1.0" encoding="UTF-8" standalone="no"?>
<!DOCTYPE svg PUBLIC "-//W3C//DTD SVG 1.1//EN"
 "http://www.w3.org/Graphics/SVG/1.1/DTD/svg11.dtd">
<!-- Generated by graphviz version 9.0.0 (0)
 -->
<!-- Pages: 1 -->
<svg width="206pt" height="265pt"
 viewBox="0.00 0.00 205.61 264.50" xmlns="http://www.w3.org/2000/svg" xmlns:xlink="http://www.w3.org/1999/xlink">
<g id="graph0" class="graph" transform="scale(1 1) rotate(0) translate(4 260.5)">
<polygon fill="white" stroke="none" points="-4,4 -4,-260.5 201.61,-260.5 201.61,4 -4,4"/>
<g id="clust1" class="cluster">
<title>cluster_subunits</title>
<polygon fill="none" stroke="black" stroke-dasharray="5,2" points="19.94,-64 19.94,-212.5 161.95,-212.5 161.95,-64 19.94,-64"/>
<text text-anchor="middle" x="90.94" y="-195.2" font-family="Times,serif" font-size="14.00">m</text>
</g>
<!-- A -->
<g id="node1" class="node">
<title>A</title>
<ellipse fill="lightgrey" stroke="lightgrey" cx="63.94" cy="-90" rx="27" ry="18"/>
<text text-anchor="middle" x="63.94" y="-84.95" font-family="Times,serif" font-size="14.00">A</text>
</g>
<!-- Y -->
<g id="node4" class="node">
<title>Y</title>
<ellipse fill="lightgrey" stroke="lightgrey" cx="126.95" cy="-18" rx="27" ry="18"/>
<text text-anchor="middle" x="126.95" y="-12.95" font-family="Times,serif" font-size="14.00">Y</text>
</g>
<!-- A&#45;&gt;Y -->
<g id="edge3" class="edge">
<title>A&#45;&gt;Y</title>
<path fill="none" stroke="black" d="M77.31,-74.16C85.66,-64.87 96.59,-52.73 106.07,-42.19"/>
<polygon fill="black" stroke="black" points="108.5,-44.72 112.59,-34.95 103.3,-40.04 108.5,-44.72"/>
</g>
<!-- X -->
<g id="node2" class="node">
<title>X</title>
<ellipse fill="lightgrey" stroke="lightgrey" cx="126.95" cy="-162" rx="27" ry="18"/>
<text text-anchor="middle" x="126.95" y="-156.95" font-family="Times,serif" font-size="14.00">X</text>
</g>
<!-- X&#45;&gt;A -->
<g id="edge1" class="edge">
<title>X&#45;&gt;A</title>
<path fill="none" stroke="black" d="M113.59,-146.15C105.23,-136.87 94.3,-124.73 84.82,-114.19"/>
<polygon fill="black" stroke="black" points="87.59,-112.04 78.3,-106.95 82.39,-116.72 87.59,-112.04"/>
</g>
<!-- X&#45;&gt;Y -->
<g id="edge4" class="edge">
<title>X&#45;&gt;Y</title>
<path fill="none" stroke="black" d="M126.95,-143.59C126.95,-119.61 126.95,-76.14 126.95,-47.42"/>
<polygon fill="black" stroke="black" points="130.45,-47.62 126.95,-37.62 123.45,-47.62 130.45,-47.62"/>
</g>
<!-- Z -->
<g id="node3" class="node">
<title>Z</title>
<ellipse fill="lightgrey" stroke="lightgrey" cx="54.94" cy="-162" rx="27" ry="18"/>
<text text-anchor="middle" x="54.94" y="-156.95" font-family="Times,serif" font-size="14.00">Z</text>
</g>
<!-- Z&#45;&gt;A -->
<g id="edge2" class="edge">
<title>Z&#45;&gt;A</title>
<path fill="none" stroke="black" d="M57.17,-143.7C58.12,-136.32 59.25,-127.52 60.31,-119.25"/>
<polygon fill="black" stroke="black" points="63.75,-119.97 61.55,-109.6 56.81,-119.07 63.75,-119.97"/>
</g>
<!-- U -->
<g id="node5" class="node">
<title>U</title>
<ellipse fill="none" stroke="black" cx="126.95" cy="-238.5" rx="27" ry="18"/>
<text text-anchor="middle" x="126.95" y="-233.45" font-family="Times,serif" font-size="14.00">U</text>
</g>
<!-- U&#45;&gt;A -->
<g id="edge5" class="edge">
<title>U&#45;&gt;A</title>
<path fill="none" stroke="black" d="M99.97,-235.04C71.35,-231.8 28.89,-225 18.94,-212.5 0,-188.67 8.45,-172.58 18.94,-144 23.25,-132.27 31.43,-121.36 39.65,-112.53"/>
<polygon fill="black" stroke="black" points="42.08,-115.05 46.67,-105.5 37.13,-110.1 42.08,-115.05"/>
</g>
<!-- U&#45;&gt;X -->
<g id="edge6" class="edge">
<title>U&#45;&gt;X</title>
<path fill="none" stroke="black" d="M126.95,-220.22C126.95,-211.82 126.95,-201.49 126.95,-191.93"/>
<polygon fill="black" stroke="black" points="130.45,-191.95 126.95,-181.95 123.45,-191.95 130.45,-191.95"/>
</g>
<!-- U&#45;&gt;Y -->
<g id="edge7" class="edge">
<title>U&#45;&gt;Y</title>
<path fill="none" stroke="black" d="M149.68,-228.11C156.1,-224.27 162.32,-219.13 165.95,-212.5 197.61,-154.59 189.02,-125.84 165.95,-64 162.75,-55.42 157.09,-47.39 151.06,-40.55"/>
<polygon fill="black" stroke="black" points="153.89,-38.45 144.43,-33.68 148.85,-43.3 153.89,-38.45"/>
</g>
</g>
</svg>
