<?xml version="1.0" encoding="UTF-8" standalone="no"?>
<!DOCTYPE svg PUBLIC "-//W3C//DTD SVG 1.1//EN"
 "http://www.w3.org/Graphics/SVG/1.1/DTD/svg11.dtd">
<!-- Generated by graphviz version 9.0.0 (0)
 -->
<!-- Pages: 1 -->
<svg width="180pt" height="229pt"
 viewBox="0.00 0.00 180.00 228.50" xmlns="http://www.w3.org/2000/svg" xmlns:xlink="http://www.w3.org/1999/xlink">
<g id="graph0" class="graph" transform="scale(1 1) rotate(0) translate(4 224.5)">
<polygon fill="white" stroke="none" points="-4,4 -4,-224.5 176,-224.5 176,4 -4,4"/>
<g id="clust1" class="cluster">
<title>cluster_subunits</title>
<polygon fill="none" stroke="black" stroke-dasharray="5,2" points="0,0 0,-220.5 70,-220.5 70,0 0,0"/>
<text text-anchor="middle" x="35" y="-203.2" font-family="Times,serif" font-size="14.00">m</text>
</g>
<!-- A -->
<g id="node1" class="node">
<title>A</title>
<ellipse fill="lightgrey" stroke="lightgrey" cx="35" cy="-98" rx="27" ry="18"/>
<text text-anchor="middle" x="35" y="-92.95" font-family="Times,serif" font-size="14.00">A</text>
</g>
<!-- Y -->
<g id="node2" class="node">
<title>Y</title>
<ellipse fill="lightgrey" stroke="lightgrey" cx="35" cy="-26" rx="27" ry="18"/>
<text text-anchor="middle" x="35" y="-20.95" font-family="Times,serif" font-size="14.00">Y</text>
</g>
<!-- A&#45;&gt;Y -->
<g id="edge1" class="edge">
<title>A&#45;&gt;Y</title>
<path fill="none" stroke="black" d="M35,-79.7C35,-72.41 35,-63.73 35,-55.54"/>
<polygon fill="black" stroke="black" points="38.5,-55.62 35,-45.62 31.5,-55.62 38.5,-55.62"/>
</g>
<!-- W -->
<g id="node4" class="node">
<title>W</title>
<ellipse fill="lightgrey" stroke="lightgrey" cx="145" cy="-98" rx="27" ry="18"/>
<text text-anchor="middle" x="145" y="-92.95" font-family="Times,serif" font-size="14.00">W</text>
</g>
<!-- A&#45;&gt;W -->
<g id="edge3" class="edge">
<title>A&#45;&gt;W</title>
<path fill="none" stroke="black" d="M62.07,-98C76.87,-98 91.67,-98 106.47,-98"/>
<polygon fill="black" stroke="black" points="106.28,-101.5 116.28,-98 106.28,-94.5 106.28,-101.5"/>
</g>
<!-- Z -->
<g id="node3" class="node">
<title>Z</title>
<ellipse fill="lightgrey" stroke="lightgrey" cx="35" cy="-170" rx="27" ry="18"/>
<text text-anchor="middle" x="35" y="-164.95" font-family="Times,serif" font-size="14.00">Z</text>
</g>
<!-- Z&#45;&gt;A -->
<g id="edge2" class="edge">
<title>Z&#45;&gt;A</title>
<path fill="none" stroke="black" d="M35,-151.7C35,-144.41 35,-135.73 35,-127.54"/>
<polygon fill="black" stroke="black" points="38.5,-127.61 35,-117.61 31.5,-127.61 38.5,-127.61"/>
</g>
<!-- W&#45;&gt;Y -->
<g id="edge4" class="edge">
<title>W&#45;&gt;Y</title>
<path fill="none" stroke="black" d="M125.84,-84.81C108.65,-73.87 83.18,-57.66 63.58,-45.19"/>
<polygon fill="black" stroke="black" points="65.53,-42.28 55.22,-39.87 61.78,-48.19 65.53,-42.28"/>
</g>
<!-- U -->
<g id="node5" class="node">
<title>U</title>
<ellipse fill="none" stroke="black" cx="107" cy="-170" rx="27" ry="18"/>
<text text-anchor="middle" x="107" y="-164.95" font-family="Times,serif" font-size="14.00">U</text>
</g>
<!-- U&#45;&gt;A -->
<g id="edge5" class="edge">
<title>U&#45;&gt;A</title>
<path fill="none" stroke="black" d="M92.08,-154.5C82.23,-144.92 69.14,-132.19 57.97,-121.34"/>
<polygon fill="black" stroke="black" points="60.59,-119.01 50.98,-114.55 55.71,-124.03 60.59,-119.01"/>
</g>
<!-- U&#45;&gt;Y -->
<g id="edge6" class="edge">
<title>U&#45;&gt;Y</title>
<path fill="none" stroke="black" d="M101.38,-152.12C95.03,-133.86 83.88,-104.11 71,-80 65.82,-70.31 59.28,-60.2 53.19,-51.44"/>
<polygon fill="black" stroke="black" points="56.15,-49.56 47.5,-43.46 50.46,-53.63 56.15,-49.56"/>
</g>
<!-- U&#45;&gt;W -->
<g id="edge7" class="edge">
<title>U&#45;&gt;W</title>
<path fill="none" stroke="black" d="M115.81,-152.76C120.27,-144.55 125.8,-134.37 130.84,-125.09"/>
<polygon fill="black" stroke="black" points="133.82,-126.94 135.51,-116.48 127.66,-123.6 133.82,-126.94"/>
</g>
</g>
</svg>
