<?xml version="1.0" encoding="UTF-8" standalone="no"?>
<!DOCTYPE svg PUBLIC "-//W3C//DTD SVG 1.1//EN"
 "http://www.w3.org/Graphics/SVG/1.1/DTD/svg11.dtd">
<!-- Generated by graphviz version 9.0.0 (0)
 -->
<!-- Pages: 1 -->
<svg width="197pt" height="265pt"
 viewBox="0.00 0.00 197.00 264.50" xmlns="http://www.w3.org/2000/svg" xmlns:xlink="http://www.w3.org/1999/xlink">
<g id="graph0" class="graph" transform="scale(1 1) rotate(0) translate(4 260.5)">
<polygon fill="white" stroke="none" points="-4,4 -4,-260.5 193,-260.5 193,4 -4,4"/>
<g id="clust1" class="cluster">
<title>cluster_subunits</title>
<polygon fill="none" stroke="black" stroke-dasharray="5,2" points="0,-64 0,-212.5 142,-212.5 142,-64 0,-64"/>
<text text-anchor="middle" x="71" y="-195.2" font-family="Times,serif" font-size="14.00">m</text>
</g>
<!-- A -->
<g id="node1" class="node">
<title>A</title>
<ellipse fill="lightgrey" stroke="lightgrey" cx="107" cy="-162" rx="27" ry="18"/>
<text text-anchor="middle" x="107" y="-156.95" font-family="Times,serif" font-size="14.00">A</text>
</g>
<!-- W -->
<g id="node2" class="node">
<title>W</title>
<ellipse fill="lightgrey" stroke="lightgrey" cx="107" cy="-90" rx="27" ry="18"/>
<text text-anchor="middle" x="107" y="-84.95" font-family="Times,serif" font-size="14.00">W</text>
</g>
<!-- A&#45;&gt;W -->
<g id="edge1" class="edge">
<title>A&#45;&gt;W</title>
<path fill="none" stroke="black" d="M107,-143.7C107,-136.41 107,-127.73 107,-119.54"/>
<polygon fill="black" stroke="black" points="110.5,-119.61 107,-109.61 103.5,-119.61 110.5,-119.61"/>
</g>
<!-- Y -->
<g id="node4" class="node">
<title>Y</title>
<ellipse fill="lightgrey" stroke="lightgrey" cx="153" cy="-18" rx="27" ry="18"/>
<text text-anchor="middle" x="153" y="-12.95" font-family="Times,serif" font-size="14.00">Y</text>
</g>
<!-- W&#45;&gt;Y -->
<g id="edge3" class="edge">
<title>W&#45;&gt;Y</title>
<path fill="none" stroke="black" d="M117.44,-73.12C123.03,-64.61 130.04,-53.94 136.36,-44.32"/>
<polygon fill="black" stroke="black" points="139.21,-46.37 141.77,-36.09 133.35,-42.52 139.21,-46.37"/>
</g>
<!-- Z -->
<g id="node3" class="node">
<title>Z</title>
<ellipse fill="lightgrey" stroke="lightgrey" cx="35" cy="-162" rx="27" ry="18"/>
<text text-anchor="middle" x="35" y="-156.95" font-family="Times,serif" font-size="14.00">Z</text>
</g>
<!-- Z&#45;&gt;W -->
<g id="edge2" class="edge">
<title>Z&#45;&gt;W</title>
<path fill="none" stroke="black" d="M49.92,-146.5C59.77,-136.92 72.86,-124.19 84.03,-113.34"/>
<polygon fill="black" stroke="black" points="86.28,-116.03 91.01,-106.55 81.41,-111.01 86.28,-116.03"/>
</g>
<!-- U -->
<g id="node5" class="node">
<title>U</title>
<ellipse fill="none" stroke="black" cx="162" cy="-238.5" rx="27" ry="18"/>
<text text-anchor="middle" x="162" y="-233.45" font-family="Times,serif" font-size="14.00">U</text>
</g>
<!-- U&#45;&gt;A -->
<g id="edge4" class="edge">
<title>U&#45;&gt;A</title>
<path fill="none" stroke="black" d="M150.6,-222.06C143.28,-212.14 133.6,-199.03 125.22,-187.68"/>
<polygon fill="black" stroke="black" points="128.22,-185.86 119.47,-179.89 122.59,-190.01 128.22,-185.86"/>
</g>
<!-- U&#45;&gt;W -->
<g id="edge5" class="edge">
<title>U&#45;&gt;W</title>
<path fill="none" stroke="black" d="M160.56,-220.35C158.49,-201.13 153.67,-169.34 143,-144 138.8,-134.02 132.58,-123.96 126.5,-115.34"/>
<polygon fill="black" stroke="black" points="129.46,-113.45 120.69,-107.5 123.83,-117.62 129.46,-113.45"/>
</g>
<!-- U&#45;&gt;Y -->
<g id="edge6" class="edge">
<title>U&#45;&gt;Y</title>
<path fill="none" stroke="black" d="M164.34,-220.31C164.61,-217.7 164.85,-215.03 165,-212.5 168.51,-153.84 161.65,-85.18 156.93,-47.45"/>
<polygon fill="black" stroke="black" points="160.44,-47.31 155.68,-37.84 153.5,-48.21 160.44,-47.31"/>
</g>
</g>
</svg>
