<?xml version="1.0" encoding="UTF-8" standalone="no"?>
<!DOCTYPE svg PUBLIC "-//W3C//DTD SVG 1.1//EN"
 "http://www.w3.org/Graphics/SVG/1.1/DTD/svg11.dtd">
<!-- Generated by graphviz version 9.0.0 (0)
 -->
<!-- Pages: 1 -->
<svg width="180pt" height="201pt"
 viewBox="0.00 0.00 180.00 200.50" xmlns="http://www.w3.org/2000/svg" xmlns:xlink="http://www.w3.org/1999/xlink">
<g id="graph0" class="graph" transform="scale(1 1) rotate(0) translate(4 196.5)">
<polygon fill="white" stroke="none" points="-4,4 -4,-196.5 176,-196.5 176,4 -4,4"/>
<g id="clust1" class="cluster">
<title>cluster_subunits</title>
<polygon fill="none" stroke="black" stroke-dasharray="5,2" points="0,0 0,-148.5 70,-148.5 70,0 0,0"/>
<text text-anchor="middle" x="35" y="-131.2" font-family="Times,serif" font-size="14.00">m</text>
</g>
<!-- A -->
<g id="node1" class="node">
<title>A</title>
<ellipse fill="lightgrey" stroke="lightgrey" cx="35" cy="-98" rx="27" ry="18"/>
<text text-anchor="middle" x="35" y="-92.95" font-family="Times,serif" font-size="14.00">A</text>
</g>
<!-- Y -->
<g id="node2" class="node">
<title>Y</title>
<ellipse fill="lightgrey" stroke="lightgrey" cx="35" cy="-26" rx="27" ry="18"/>
<text text-anchor="middle" x="35" y="-20.95" font-family="Times,serif" font-size="14.00">Y</text>
</g>
<!-- A&#45;&gt;Y -->
<g id="edge1" class="edge">
<title>A&#45;&gt;Y</title>
<path fill="none" stroke="black" d="M35,-79.7C35,-72.41 35,-63.73 35,-55.54"/>
<polygon fill="black" stroke="black" points="38.5,-55.62 35,-45.62 31.5,-55.62 38.5,-55.62"/>
</g>
<!-- Z -->
<g id="node3" class="node">
<title>Z</title>
<ellipse fill="lightgrey" stroke="lightgrey" cx="145" cy="-98" rx="27" ry="18"/>
<text text-anchor="middle" x="145" y="-92.95" font-family="Times,serif" font-size="14.00">Z</text>
</g>
<!-- A&#45;&gt;Z -->
<g id="edge2" class="edge">
<title>A&#45;&gt;Z</title>
<path fill="none" stroke="black" d="M62.07,-98C76.87,-98 91.67,-98 106.47,-98"/>
<polygon fill="black" stroke="black" points="106.28,-101.5 116.28,-98 106.28,-94.5 106.28,-101.5"/>
</g>
<!-- Z&#45;&gt;Y -->
<g id="edge3" class="edge">
<title>Z&#45;&gt;Y</title>
<path fill="none" stroke="black" d="M125.84,-84.81C108.65,-73.87 83.18,-57.66 63.58,-45.19"/>
<polygon fill="black" stroke="black" points="65.53,-42.28 55.22,-39.87 61.78,-48.19 65.53,-42.28"/>
</g>
<!-- U -->
<g id="node4" class="node">
<title>U</title>
<ellipse fill="none" stroke="black" cx="90" cy="-174.5" rx="27" ry="18"/>
<text text-anchor="middle" x="90" y="-169.45" font-family="Times,serif" font-size="14.00">U</text>
</g>
<!-- U&#45;&gt;A -->
<g id="edge4" class="edge">
<title>U&#45;&gt;A</title>
<path fill="none" stroke="black" d="M78.6,-158.06C71.28,-148.14 61.6,-135.03 53.22,-123.68"/>
<polygon fill="black" stroke="black" points="56.22,-121.85 47.47,-115.89 50.59,-126.01 56.22,-121.85"/>
</g>
<!-- U&#45;&gt;Y -->
<g id="edge5" class="edge">
<title>U&#45;&gt;Y</title>
<path fill="none" stroke="black" d="M88.56,-156.35C86.49,-137.13 81.67,-105.34 71,-80 66.8,-70.02 60.58,-59.96 54.5,-51.34"/>
<polygon fill="black" stroke="black" points="57.46,-49.45 48.69,-43.5 51.83,-53.62 57.46,-49.45"/>
</g>
<!-- U&#45;&gt;Z -->
<g id="edge6" class="edge">
<title>U&#45;&gt;Z</title>
<path fill="none" stroke="black" d="M101.4,-158.06C108.72,-148.14 118.4,-135.03 126.78,-123.68"/>
<polygon fill="black" stroke="black" points="129.41,-126.01 132.53,-115.89 123.78,-121.86 129.41,-126.01"/>
</g>
</g>
</svg>
