<?xml version="1.0" encoding="UTF-8" standalone="no"?>
<!DOCTYPE svg PUBLIC "-//W3C//DTD SVG 1.1//EN"
 "http://www.w3.org/Graphics/SVG/1.1/DTD/svg11.dtd">
<!-- Generated by graphviz version 9.0.0 (0)
 -->
<!-- Pages: 1 -->
<svg width="180pt" height="265pt"
 viewBox="0.00 0.00 180.00 264.50" xmlns="http://www.w3.org/2000/svg" xmlns:xlink="http://www.w3.org/1999/xlink">
<g id="graph0" class="graph" transform="scale(1 1) rotate(0) translate(4 260.5)">
<polygon fill="white" stroke="none" points="-4,4 -4,-260.5 176,-260.5 176,4 -4,4"/>
<g id="clust1" class="cluster">
<title>cluster_subunits</title>
<polygon fill="none" stroke="black" stroke-dasharray="5,2" points="0,-64 0,-212.5 70,-212.5 70,-64 0,-64"/>
<text text-anchor="middle" x="35" y="-195.2" font-family="Times,serif" font-size="14.00">m</text>
</g>
<!-- A -->
<g id="node1" class="node">
<title>A</title>
<ellipse fill="lightgrey" stroke="lightgrey" cx="35" cy="-90" rx="27" ry="18"/>
<text text-anchor="middle" x="35" y="-84.95" font-family="Times,serif" font-size="14.00">A</text>
</g>
<!-- Y -->
<g id="node3" class="node">
<title>Y</title>
<ellipse fill="lightgrey" stroke="lightgrey" cx="76" cy="-18" rx="27" ry="18"/>
<text text-anchor="middle" x="76" y="-12.95" font-family="Times,serif" font-size="14.00">Y</text>
</g>
<!-- A&#45;&gt;Y -->
<g id="edge2" class="edge">
<title>A&#45;&gt;Y</title>
<path fill="none" stroke="black" d="M44.51,-72.77C49.37,-64.46 55.41,-54.15 60.89,-44.79"/>
<polygon fill="black" stroke="black" points="63.74,-46.85 65.78,-36.45 57.7,-43.31 63.74,-46.85"/>
</g>
<!-- Z -->
<g id="node2" class="node">
<title>Z</title>
<ellipse fill="lightgrey" stroke="lightgrey" cx="35" cy="-162" rx="27" ry="18"/>
<text text-anchor="middle" x="35" y="-156.95" font-family="Times,serif" font-size="14.00">Z</text>
</g>
<!-- Z&#45;&gt;A -->
<g id="edge1" class="edge">
<title>Z&#45;&gt;A</title>
<path fill="none" stroke="black" d="M35,-143.7C35,-136.41 35,-127.73 35,-119.54"/>
<polygon fill="black" stroke="black" points="38.5,-119.61 35,-109.61 31.5,-119.61 38.5,-119.61"/>
</g>
<!-- U1 -->
<g id="node4" class="node">
<title>U1</title>
<ellipse fill="none" stroke="black" cx="62" cy="-238.5" rx="27" ry="18"/>
<text text-anchor="middle" x="62" y="-233.45" font-family="Times,serif" font-size="14.00">U1</text>
</g>
<!-- U1&#45;&gt;A -->
<g id="edge3" class="edge">
<title>U1&#45;&gt;A</title>
<path fill="none" stroke="black" d="M68.91,-220.77C69.78,-218.05 70.52,-215.23 71,-212.5 76.23,-182.51 79.95,-173.1 71,-144 67.82,-133.65 61.85,-123.51 55.67,-114.91"/>
<polygon fill="black" stroke="black" points="58.55,-112.91 49.67,-107.13 53.01,-117.19 58.55,-112.91"/>
</g>
<!-- U1&#45;&gt;Z -->
<g id="edge4" class="edge">
<title>U1&#45;&gt;Z</title>
<path fill="none" stroke="black" d="M55.87,-220.59C52.66,-211.74 48.65,-200.66 45,-190.6"/>
<polygon fill="black" stroke="black" points="48.32,-189.47 41.62,-181.26 41.74,-191.86 48.32,-189.47"/>
</g>
<!-- U2 -->
<g id="node5" class="node">
<title>U2</title>
<ellipse fill="none" stroke="black" cx="145" cy="-162" rx="27" ry="18"/>
<text text-anchor="middle" x="145" y="-156.95" font-family="Times,serif" font-size="14.00">U2</text>
</g>
<!-- U2&#45;&gt;A -->
<g id="edge5" class="edge">
<title>U2&#45;&gt;A</title>
<path fill="none" stroke="black" d="M125.84,-148.81C108.65,-137.87 83.18,-121.66 63.58,-109.19"/>
<polygon fill="black" stroke="black" points="65.53,-106.28 55.22,-103.86 61.77,-112.19 65.53,-106.28"/>
</g>
<!-- U2&#45;&gt;Y -->
<g id="edge6" class="edge">
<title>U2&#45;&gt;Y</title>
<path fill="none" stroke="black" d="M136.95,-144.43C125.16,-120.17 103.07,-74.71 88.97,-45.7"/>
<polygon fill="black" stroke="black" points="92.18,-44.29 84.66,-36.82 85.88,-47.35 92.18,-44.29"/>
</g>
</g>
</svg>
