<?xml version="1.0" encoding="UTF-8" standalone="no"?>
<!DOCTYPE svg PUBLIC "-//W3C//DTD SVG 1.1//EN"
 "http://www.w3.org/Graphics/SVG/1.1/DTD/svg11.dtd">
<!-- Generated by graphviz version 9.0.0 (0)
 -->
<!-- Pages: 1 -->
<svg width="142pt" height="201pt"
 viewBox="0.00 0.00 142.00 200.50" xmlns="http://www.w3.org/2000/svg" xmlns:xlink="http://www.w3.org/1999/xlink">
<g id="graph0" class="graph" transform="scale(1 1) rotate(0) translate(4 196.5)">
<polygon fill="white" stroke="none" points="-4,4 -4,-196.5 138,-196.5 138,4 -4,4"/>
<g id="clust1" class="cluster">
<title>cluster_subunits</title>
<polygon fill="none" stroke="black" stroke-dasharray="5,2" points="0,0 0,-148.5 70,-148.5 70,0 0,0"/>
<text text-anchor="middle" x="35" y="-131.2" font-family="Times,serif" font-size="14.00">m</text>
</g>
<!-- A -->
<g id="node1" class="node">
<title>A</title>
<ellipse fill="lightgrey" stroke="lightgrey" cx="35" cy="-98" rx="27" ry="18"/>
<text text-anchor="middle" x="35" y="-92.95" font-family="Times,serif" font-size="14.00">A</text>
</g>
<!-- Y -->
<g id="node2" class="node">
<title>Y</title>
<ellipse fill="lightgrey" stroke="lightgrey" cx="35" cy="-26" rx="27" ry="18"/>
<text text-anchor="middle" x="35" y="-20.95" font-family="Times,serif" font-size="14.00">Y</text>
</g>
<!-- A&#45;&gt;Y -->
<g id="edge1" class="edge">
<title>A&#45;&gt;Y</title>
<path fill="none" stroke="black" d="M35,-79.7C35,-72.41 35,-63.73 35,-55.54"/>
<polygon fill="black" stroke="black" points="38.5,-55.62 35,-45.62 31.5,-55.62 38.5,-55.62"/>
</g>
<!-- W -->
<g id="node3" class="node">
<title>W</title>
<ellipse fill="lightgrey" stroke="lightgrey" cx="107" cy="-98" rx="27" ry="18"/>
<text text-anchor="middle" x="107" y="-92.95" font-family="Times,serif" font-size="14.00">W</text>
</g>
<!-- A&#45;&gt;W -->
<g id="edge2" class="edge">
<title>A&#45;&gt;W</title>
<path fill="none" stroke="black" d="M62.28,-98C64.28,-98 66.28,-98 68.29,-98"/>
<polygon fill="black" stroke="black" points="68.24,-101.5 78.24,-98 68.24,-94.5 68.24,-101.5"/>
</g>
<!-- W&#45;&gt;Y -->
<g id="edge3" class="edge">
<title>W&#45;&gt;Y</title>
<path fill="none" stroke="black" d="M92.08,-82.5C82.23,-72.92 69.14,-60.19 57.97,-49.34"/>
<polygon fill="black" stroke="black" points="60.59,-47 50.98,-42.54 55.71,-52.02 60.59,-47"/>
</g>
<!-- U -->
<g id="node4" class="node">
<title>U</title>
<ellipse fill="none" stroke="black" cx="71" cy="-174.5" rx="27" ry="18"/>
<text text-anchor="middle" x="71" y="-169.45" font-family="Times,serif" font-size="14.00">U</text>
</g>
<!-- U&#45;&gt;A -->
<g id="edge4" class="edge">
<title>U&#45;&gt;A</title>
<path fill="none" stroke="black" d="M63.01,-156.97C58.58,-147.8 52.97,-136.19 47.93,-125.77"/>
<polygon fill="black" stroke="black" points="51.13,-124.33 43.63,-116.85 44.82,-127.38 51.13,-124.33"/>
</g>
<!-- U&#45;&gt;W -->
<g id="edge5" class="edge">
<title>U&#45;&gt;W</title>
<path fill="none" stroke="black" d="M78.99,-156.97C83.42,-147.8 89.03,-136.19 94.07,-125.77"/>
<polygon fill="black" stroke="black" points="97.18,-127.38 98.37,-116.85 90.87,-124.34 97.18,-127.38"/>
</g>
</g>
</svg>
