<?xml version="1.0" encoding="UTF-8" standalone="no"?>
<!DOCTYPE svg PUBLIC "-//W3C//DTD SVG 1.1//EN"
 "http://www.w3.org/Graphics/SVG/1.1/DTD/svg11.dtd">
<!-- Generated by graphviz version 9.0.0 (0)
 -->
<!-- Pages: 1 -->
<svg width="162pt" height="273pt"
 viewBox="0.00 0.00 162.00 272.50" xmlns="http://www.w3.org/2000/svg" xmlns:xlink="http://www.w3.org/1999/xlink">
<g id="graph0" class="graph" transform="scale(1 1) rotate(0) translate(4 268.5)">
<polygon fill="white" stroke="none" points="-4,4 -4,-268.5 158,-268.5 158,4 -4,4"/>
<g id="clust1" class="cluster">
<title>cluster_subunits</title>
<polygon fill="none" stroke="black" stroke-dasharray="5,2" points="28,0 28,-148.5 98,-148.5 98,0 28,0"/>
<text text-anchor="middle" x="63" y="-131.2" font-family="Times,serif" font-size="14.00">m</text>
</g>
<!-- W -->
<g id="node1" class="node">
<title>W</title>
<ellipse fill="lightgrey" stroke="lightgrey" cx="63" cy="-98" rx="27" ry="18"/>
<text text-anchor="middle" x="63" y="-92.95" font-family="Times,serif" font-size="14.00">W</text>
</g>
<!-- Y -->
<g id="node2" class="node">
<title>Y</title>
<ellipse fill="lightgrey" stroke="lightgrey" cx="63" cy="-26" rx="27" ry="18"/>
<text text-anchor="middle" x="63" y="-20.95" font-family="Times,serif" font-size="14.00">Y</text>
</g>
<!-- W&#45;&gt;Y -->
<g id="edge1" class="edge">
<title>W&#45;&gt;Y</title>
<path fill="none" stroke="black" d="M63,-79.7C63,-72.41 63,-63.73 63,-55.54"/>
<polygon fill="black" stroke="black" points="66.5,-55.62 63,-45.62 59.5,-55.62 66.5,-55.62"/>
</g>
<!-- A -->
<g id="node3" class="node">
<title>A</title>
<ellipse fill="lightgrey" stroke="lightgrey" cx="55" cy="-174.5" rx="27" ry="18"/>
<text text-anchor="middle" x="55" y="-169.45" font-family="Times,serif" font-size="14.00">A</text>
</g>
<!-- A&#45;&gt;W -->
<g id="edge2" class="edge">
<title>A&#45;&gt;W</title>
<path fill="none" stroke="black" d="M56.85,-156.22C57.77,-147.73 58.89,-137.26 59.93,-127.62"/>
<polygon fill="black" stroke="black" points="63.38,-128.26 60.97,-117.94 56.42,-127.51 63.38,-128.26"/>
</g>
<!-- U1 -->
<g id="node4" class="node">
<title>U1</title>
<ellipse fill="none" stroke="black" cx="27" cy="-246.5" rx="27" ry="18"/>
<text text-anchor="middle" x="27" y="-241.45" font-family="Times,serif" font-size="14.00">U1</text>
</g>
<!-- U1&#45;&gt;Y -->
<g id="edge3" class="edge">
<title>U1&#45;&gt;Y</title>
<path fill="none" stroke="black" d="M23.26,-228.4C17.34,-197.6 8.26,-131.27 27,-80 30.72,-69.83 36.81,-59.73 42.94,-51.12"/>
<polygon fill="black" stroke="black" points="45.61,-53.4 48.84,-43.31 40.02,-49.18 45.61,-53.4"/>
</g>
<!-- U1&#45;&gt;A -->
<g id="edge4" class="edge">
<title>U1&#45;&gt;A</title>
<path fill="none" stroke="black" d="M33.64,-228.91C36.77,-221.07 40.6,-211.49 44.15,-202.63"/>
<polygon fill="black" stroke="black" points="47.38,-203.96 47.85,-193.38 40.89,-201.36 47.38,-203.96"/>
</g>
<!-- U2 -->
<g id="node5" class="node">
<title>U2</title>
<ellipse fill="none" stroke="black" cx="127" cy="-174.5" rx="27" ry="18"/>
<text text-anchor="middle" x="127" y="-169.45" font-family="Times,serif" font-size="14.00">U2</text>
</g>
<!-- U2&#45;&gt;W -->
<g id="edge5" class="edge">
<title>U2&#45;&gt;W</title>
<path fill="none" stroke="black" d="M114.05,-158.42C105.2,-148.12 93.3,-134.27 83.21,-122.53"/>
<polygon fill="black" stroke="black" points="86.09,-120.51 76.92,-115.2 80.78,-125.07 86.09,-120.51"/>
</g>
<!-- U2&#45;&gt;Y -->
<g id="edge6" class="edge">
<title>U2&#45;&gt;Y</title>
<path fill="none" stroke="black" d="M123.53,-156.38C119.27,-137.18 111.08,-105.4 99,-80 94.35,-70.22 88.03,-60.21 81.98,-51.57"/>
<polygon fill="black" stroke="black" points="84.97,-49.73 76.26,-43.69 79.31,-53.84 84.97,-49.73"/>
</g>
</g>
</svg>
