<?xml version="1.0" encoding="UTF-8" standalone="no"?>
<!DOCTYPE svg PUBLIC "-//W3C//DTD SVG 1.1//EN"
 "http://www.w3.org/Graphics/SVG/1.1/DTD/svg11.dtd">
<!-- Generated by graphviz version 9.0.0 (0)
 -->
<!-- Pages: 1 -->
<svg width="161pt" height="201pt"
 viewBox="0.00 0.00 161.00 200.50" xmlns="http://www.w3.org/2000/svg" xmlns:xlink="http://www.w3.org/1999/xlink">
<g id="graph0" class="graph" transform="scale(1 1) rotate(0) translate(4 196.5)">
<polygon fill="white" stroke="none" points="-4,4 -4,-196.5 157,-196.5 157,4 -4,4"/>
<g id="clust1" class="cluster">
<title>cluster_subunits</title>
<polygon fill="none" stroke="black" stroke-dasharray="5,2" points="64,0 64,-148.5 134,-148.5 134,0 64,0"/>
<text text-anchor="middle" x="99" y="-131.2" font-family="Times,serif" font-size="14.00">m</text>
</g>
<!-- A -->
<g id="node1" class="node">
<title>A</title>
<ellipse fill="lightgrey" stroke="lightgrey" cx="99" cy="-98" rx="27" ry="18"/>
<text text-anchor="middle" x="99" y="-92.95" font-family="Times,serif" font-size="14.00">A</text>
</g>
<!-- Y -->
<g id="node2" class="node">
<title>Y</title>
<ellipse fill="lightgrey" stroke="lightgrey" cx="99" cy="-26" rx="27" ry="18"/>
<text text-anchor="middle" x="99" y="-20.95" font-family="Times,serif" font-size="14.00">Y</text>
</g>
<!-- A&#45;&gt;Y -->
<g id="edge1" class="edge">
<title>A&#45;&gt;Y</title>
<path fill="none" stroke="black" d="M99,-79.7C99,-72.41 99,-63.73 99,-55.54"/>
<polygon fill="black" stroke="black" points="102.5,-55.62 99,-45.62 95.5,-55.62 102.5,-55.62"/>
</g>
<!-- Z -->
<g id="node3" class="node">
<title>Z</title>
<ellipse fill="lightgrey" stroke="lightgrey" cx="27" cy="-98" rx="27" ry="18"/>
<text text-anchor="middle" x="27" y="-92.95" font-family="Times,serif" font-size="14.00">Z</text>
</g>
<!-- A&#45;&gt;Z -->
<g id="edge2" class="edge">
<title>A&#45;&gt;Z</title>
<path fill="none" stroke="black" d="M71.75,-98C69.75,-98 67.75,-98 65.75,-98"/>
<polygon fill="black" stroke="black" points="65.79,-94.5 55.79,-98 65.79,-101.5 65.79,-94.5"/>
</g>
<!-- Z&#45;&gt;Y -->
<g id="edge3" class="edge">
<title>Z&#45;&gt;Y</title>
<path fill="none" stroke="black" d="M41.92,-82.5C51.77,-72.92 64.86,-60.19 76.03,-49.34"/>
<polygon fill="black" stroke="black" points="78.29,-52.02 83.02,-42.54 73.41,-47 78.29,-52.02"/>
</g>
<!-- U -->
<g id="node4" class="node">
<title>U</title>
<ellipse fill="none" stroke="black" cx="126" cy="-174.5" rx="27" ry="18"/>
<text text-anchor="middle" x="126" y="-169.45" font-family="Times,serif" font-size="14.00">U</text>
</g>
<!-- U&#45;&gt;A -->
<g id="edge4" class="edge">
<title>U&#45;&gt;A</title>
<path fill="none" stroke="black" d="M119.87,-156.59C116.66,-147.74 112.65,-136.66 109,-126.6"/>
<polygon fill="black" stroke="black" points="112.31,-125.47 105.62,-117.26 105.73,-127.86 112.31,-125.47"/>
</g>
<!-- U&#45;&gt;Y -->
<g id="edge5" class="edge">
<title>U&#45;&gt;Y</title>
<path fill="none" stroke="black" d="M132.91,-156.77C133.78,-154.05 134.52,-151.23 135,-148.5 140.23,-118.51 143.95,-109.1 135,-80 131.82,-69.65 125.85,-59.5 119.67,-50.91"/>
<polygon fill="black" stroke="black" points="122.55,-48.91 113.67,-43.13 117.01,-53.19 122.55,-48.91"/>
</g>
</g>
</svg>
