<?xml version="1.0" encoding="UTF-8" standalone="no"?>
<!DOCTYPE svg PUBLIC "-//W3C//DTD SVG 1.1//EN"
 "http://www.w3.org/Graphics/SVG/1.1/DTD/svg11.dtd">
<!-- Generated by graphviz version 9.0.0 (0)
 -->
<!-- Pages: 1 -->
<svg width="97pt" height="201pt"
 viewBox="0.00 0.00 97.00 200.50" xmlns="http://www.w3.org/2000/svg" xmlns:xlink="http://www.w3.org/1999/xlink">
<g id="graph0" class="graph" transform="scale(1 1) rotate(0) translate(4 196.5)">
<polygon fill="white" stroke="none" points="-4,4 -4,-196.5 93,-196.5 93,4 -4,4"/>
<g id="clust1" class="cluster">
<title>cluster_subunits</title>
<polygon fill="none" stroke="black" stroke-dasharray="5,2" points="0,0 0,-148.5 70,-148.5 70,0 0,0"/>
<text text-anchor="middle" x="35" y="-131.2" font-family="Times,serif" font-size="14.00">m</text>
</g>
<!-- A -->
<g id="node1" class="node">
<title>A</title>
<ellipse fill="lightgrey" stroke="lightgrey" cx="35" cy="-98" rx="27" ry="18"/>
<text text-anchor="middle" x="35" y="-92.95" font-family="Times,serif" font-size="14.00">A</text>
</g>
<!-- Y -->
<g id="node2" class="node">
<title>Y</title>
<ellipse fill="lightgrey" stroke="lightgrey" cx="35" cy="-26" rx="27" ry="18"/>
<text text-anchor="middle" x="35" y="-20.95" font-family="Times,serif" font-size="14.00">Y</text>
</g>
<!-- A&#45;&gt;Y -->
<g id="edge1" class="edge">
<title>A&#45;&gt;Y</title>
<path fill="none" stroke="black" d="M35,-79.7C35,-72.41 35,-63.73 35,-55.54"/>
<polygon fill="black" stroke="black" points="38.5,-55.62 35,-45.62 31.5,-55.62 38.5,-55.62"/>
</g>
<!-- U -->
<g id="node3" class="node">
<title>U</title>
<ellipse fill="none" stroke="black" cx="62" cy="-174.5" rx="27" ry="18"/>
<text text-anchor="middle" x="62" y="-169.45" font-family="Times,serif" font-size="14.00">U</text>
</g>
<!-- U&#45;&gt;A -->
<g id="edge2" class="edge">
<title>U&#45;&gt;A</title>
<path fill="none" stroke="black" d="M55.87,-156.59C52.66,-147.74 48.65,-136.66 45,-126.6"/>
<polygon fill="black" stroke="black" points="48.32,-125.47 41.62,-117.26 41.74,-127.86 48.32,-125.47"/>
</g>
<!-- U&#45;&gt;Y -->
<g id="edge3" class="edge">
<title>U&#45;&gt;Y</title>
<path fill="none" stroke="black" d="M68.91,-156.77C69.78,-154.05 70.52,-151.23 71,-148.5 76.23,-118.51 79.95,-109.1 71,-80 67.82,-69.65 61.85,-59.5 55.67,-50.91"/>
<polygon fill="black" stroke="black" points="58.55,-48.91 49.67,-43.13 53.01,-53.19 58.55,-48.91"/>
</g>
</g>
</svg>
