<?xml version="1.0" encoding="UTF-8" standalone="no"?>
<!DOCTYPE svg PUBLIC "-//W3C//DTD SVG 1.1//EN"
 "http://www.w3.org/Graphics/SVG/1.1/DTD/svg11.dtd">
<!-- Generated by graphviz version 9.0.0 (0)
 -->
<!-- Pages: 1 -->
<svg width="142pt" height="221pt"
 viewBox="0.00 0.00 142.00 220.50" xmlns="http://www.w3.org/2000/svg" xmlns:xlink="http://www.w3.org/1999/xlink">
<g id="graph0" class="graph" transform="scale(1 1) rotate(0) translate(4 216.5)">
<polygon fill="white" stroke="none" points="-4,4 -4,-216.5 138,-216.5 138,4 -4,4"/>
<g id="clust1" class="cluster">
<title>cluster_subunits</title>
<polygon fill="none" stroke="black" stroke-dasharray="5,2" points="0,-64 0,-212.5 70,-212.5 70,-64 0,-64"/>
<text text-anchor="middle" x="35" y="-195.2" font-family="Times,serif" font-size="14.00">m</text>
</g>
<!-- A -->
<g id="node1" class="node">
<title>A</title>
<ellipse fill="lightgrey" stroke="lightgrey" cx="35" cy="-90" rx="27" ry="18"/>
<text text-anchor="middle" x="35" y="-84.95" font-family="Times,serif" font-size="14.00">A</text>
</g>
<!-- Y -->
<g id="node3" class="node">
<title>Y</title>
<ellipse fill="lightgrey" stroke="lightgrey" cx="66" cy="-18" rx="27" ry="18"/>
<text text-anchor="middle" x="66" y="-12.95" font-family="Times,serif" font-size="14.00">Y</text>
</g>
<!-- A&#45;&gt;Y -->
<g id="edge2" class="edge">
<title>A&#45;&gt;Y</title>
<path fill="none" stroke="black" d="M42.35,-72.41C45.86,-64.48 50.15,-54.78 54.12,-45.84"/>
<polygon fill="black" stroke="black" points="57.24,-47.41 58.09,-36.85 50.84,-44.58 57.24,-47.41"/>
</g>
<!-- Z -->
<g id="node2" class="node">
<title>Z</title>
<ellipse fill="lightgrey" stroke="lightgrey" cx="35" cy="-162" rx="27" ry="18"/>
<text text-anchor="middle" x="35" y="-156.95" font-family="Times,serif" font-size="14.00">Z</text>
</g>
<!-- Z&#45;&gt;A -->
<g id="edge1" class="edge">
<title>Z&#45;&gt;A</title>
<path fill="none" stroke="black" d="M35,-143.7C35,-136.41 35,-127.73 35,-119.54"/>
<polygon fill="black" stroke="black" points="38.5,-119.61 35,-109.61 31.5,-119.61 38.5,-119.61"/>
</g>
<!-- U -->
<g id="node4" class="node">
<title>U</title>
<ellipse fill="none" stroke="black" cx="107" cy="-162" rx="27" ry="18"/>
<text text-anchor="middle" x="107" y="-156.95" font-family="Times,serif" font-size="14.00">U</text>
</g>
<!-- U&#45;&gt;A -->
<g id="edge3" class="edge">
<title>U&#45;&gt;A</title>
<path fill="none" stroke="black" d="M92.08,-146.5C82.23,-136.92 69.14,-124.19 57.97,-113.34"/>
<polygon fill="black" stroke="black" points="60.59,-111.01 50.98,-106.55 55.71,-116.03 60.59,-111.01"/>
</g>
<!-- U&#45;&gt;Y -->
<g id="edge4" class="edge">
<title>U&#45;&gt;Y</title>
<path fill="none" stroke="black" d="M102.05,-143.87C95.13,-119.88 82.46,-75.99 74.13,-47.16"/>
<polygon fill="black" stroke="black" points="77.52,-46.28 71.38,-37.64 70.79,-48.22 77.52,-46.28"/>
</g>
</g>
</svg>
